<?xml version="1.0" encoding="UTF-8" standalone="no"?>
<!-- Created with Inkscape (http://www.inkscape.org/) -->
<svg xmlns:dc="http://purl.org/dc/elements/1.1/" xmlns:cc="http://creativecommons.org/ns#" xmlns:rdf="http://www.w3.org/1999/02/22-rdf-syntax-ns#" xmlns:svg="http://www.w3.org/2000/svg" xmlns="http://www.w3.org/2000/svg" xmlns:sodipodi="http://sodipodi.sourceforge.net/DTD/sodipodi-0.dtd" xmlns:inkscape="http://www.inkscape.org/namespaces/inkscape" width="368" height="400" id="svg2" version="1.1" inkscape:version="0.92.3 (2405546, 2018-03-11)" sodipodi:docname="Rgb-raster-image.svg">
  <defs id="defs4"/>
  <sodipodi:namedview id="base" pagecolor="#ffffff" bordercolor="#666666" borderopacity="1.0" inkscape:pageopacity="0.0" inkscape:pageshadow="2" inkscape:zoom="1.4" inkscape:cx="185.5496" inkscape:cy="287.17737" inkscape:document-units="px" inkscape:current-layer="layer1" showgrid="false" inkscape:window-width="1366" inkscape:window-height="717" inkscape:window-x="0" inkscape:window-y="0" inkscape:window-maximized="1" inkscape:snap-bbox="true" inkscape:bbox-nodes="true" inkscape:snap-grids="true" fit-margin-top="0" fit-margin-left="0" fit-margin-right="0" fit-margin-bottom="0">
    <inkscape:grid type="xygrid" id="grid4099" empspacing="5" visible="true" enabled="true" snapvisiblegridlinesonly="true" spacingx="0.4" spacingy="0.4" originx="0" originy="0"/>
  </sodipodi:namedview>
  <metadata id="metadata7">
    <rdf:RDF>
      <cc:Work rdf:about="">
        <dc:format>image/svg+xml</dc:format>
        <dc:type rdf:resource="http://purl.org/dc/dcmitype/StillImage"/>
        <dc:title/>
      </cc:Work>
    </rdf:RDF>
  </metadata>
  <g inkscape:label="Ebene 1" inkscape:groupmode="layer" id="layer1" transform="translate(-176,-476.36218)">
    <rect style="opacity:1;fill:#ffffff;fill-opacity:1;fill-rule:evenodd;stroke:none;stroke-width:1.80999994;stroke-linecap:round;stroke-linejoin:round;stroke-miterlimit:4;stroke-dasharray:none;stroke-dashoffset:0;stroke-opacity:1;paint-order:normal" id="rect1004" width="240" height="240" x="-273" y="610.93359"/>
    <path style="fill:none;stroke:#000000;stroke-width:2;stroke-linecap:round;stroke-linejoin:round;stroke-miterlimit:4;stroke-dasharray:none;stroke-opacity:0.25098039" d="M 216,516.36218 528,748.36223" id="path4109" inkscape:connector-curvature="0" sodipodi:nodetypes="cc"/>
    <g id="g1220" transform="matrix(0.62857113,0,0,0.62857113,23.496084,230.82909)">
      <rect y="417.6665" x="269.66547" height="35" width="35" id="rect1208" style="opacity:1;fill:#ffffff;fill-opacity:1;fill-rule:evenodd;stroke:none;stroke-width:2;stroke-linecap:round;stroke-linejoin:round;stroke-miterlimit:4;stroke-dasharray:none;stroke-dashoffset:0;stroke-opacity:0.31372549;paint-order:normal"/>
      <g inkscape:label="Ebene 1" id="layer1-3" transform="matrix(0.18111147,0,0,0.18111147,230.2157,342.86028)">
        <circle r="128.57143" cy="475.21933" cx="280" style="fill:#ffff00;fill-opacity:1;stroke:#000000;stroke-width:6.82978201;stroke-linecap:round;stroke-linejoin:round;stroke-miterlimit:4;stroke-dasharray:none;stroke-opacity:1" id="path2985" transform="matrix(0.73208781,0,0,0.73208781,109.46126,161.76291)"/>
        <circle r="14.743886" cy="481.74243" cx="280.76123" style="fill:#ffffff;fill-opacity:1;stroke:#000000;stroke-width:5;stroke-linecap:round;stroke-linejoin:round;stroke-miterlimit:4;stroke-dasharray:none;stroke-opacity:1" id="path3755" transform="translate(-4)"/>
        <circle r="6.5876937" cy="523.15076" cx="302.72021" style="fill:#000000;fill-opacity:1;stroke:#000000;stroke-width:7.5;stroke-linecap:round;stroke-linejoin:round;stroke-miterlimit:4;stroke-dasharray:none;stroke-opacity:1" id="path3757" transform="matrix(0.66666666,0,0,0.66666666,71.888859,136.54372)"/>
        <circle r="14.743886" cy="481.74243" cx="280.76123" id="path3759" style="fill:#ffffff;fill-opacity:1;stroke:#000000;stroke-width:5;stroke-linecap:round;stroke-linejoin:round;stroke-miterlimit:4;stroke-dasharray:none;stroke-opacity:1" transform="translate(66)"/>
        <circle r="6.5876937" cy="523.15076" cx="302.72021" transform="matrix(0.66666666,0,0,0.66666666,141.88886,136.54372)" id="path3761" style="fill:#000000;fill-opacity:1;stroke:#000000;stroke-width:7.5;stroke-linecap:round;stroke-linejoin:round;stroke-miterlimit:4;stroke-dasharray:none;stroke-opacity:1"/>
        <path style="fill:#ffffff;fill-opacity:1;stroke:#000000;stroke-width:5;stroke-linecap:round;stroke-linejoin:round;stroke-miterlimit:4;stroke-dasharray:none;stroke-opacity:1" d="m 264.13515,542.28647 c 23.11998,24.68434 33.61165,27.46018 51.64044,27.46018 18.0288,0 28.07571,-17.21726 50.30617,-32.51909 -20.7099,12.26485 -37.82218,17.54723 -53.94418,17.75457 -16.12199,0.20735 -31.25369,-4.66035 -48.00243,-12.69566 z" id="path3769" inkscape:connector-curvature="0" sodipodi:nodetypes="czcsc"/>
        <path style="fill:none;stroke:#000000;stroke-width:5;stroke-linecap:round;stroke-linejoin:round;stroke-miterlimit:4;stroke-dasharray:none;stroke-opacity:1" d="m 269.78174,530.36588 c 0.4855,10.20676 -11.06173,16.0261 -15.68498,17.56718" id="path3780" inkscape:connector-curvature="0"/>
        <path style="fill:none;stroke:#000000;stroke-width:5;stroke-linecap:round;stroke-linejoin:round;stroke-miterlimit:4;stroke-dasharray:none;stroke-opacity:1" d="m 362.63686,527.22888 c 1.66374,6.69203 7.39283,10.52983 11.29319,14.43019" id="path3782" inkscape:connector-curvature="0"/>
      </g>
    </g>
    <path style="fill:none;stroke:#000000;stroke-width:2;stroke-linecap:round;stroke-linejoin:round;stroke-miterlimit:4;stroke-dasharray:none;stroke-opacity:0.25098039" d="m 192,492.36218 96,16" id="path4105" inkscape:connector-curvature="0" sodipodi:nodetypes="cc"/>
    <path style="fill:none;stroke:#000000;stroke-width:2;stroke-linecap:round;stroke-linejoin:round;stroke-miterlimit:4;stroke-dasharray:none;stroke-opacity:0.25098039" d="m 216,492.36218 312,16.00003" id="path4107" inkscape:connector-curvature="0" sodipodi:nodetypes="cc"/>
    <path style="fill:none;stroke:#000000;stroke-width:2;stroke-linecap:round;stroke-linejoin:round;stroke-miterlimit:4;stroke-dasharray:none;stroke-opacity:0.25098039" d="m 192,516.36218 96,232.00005" id="path4111" inkscape:connector-curvature="0" sodipodi:nodetypes="cc"/>
    <rect style="fill:#ededed;fill-opacity:1;stroke:none" id="rect4119" width="80" height="80" x="288" y="780.36218"/>
    <rect y="780.36218" x="368" height="80" width="80" id="rect4121" style="fill:#5a5a2a;fill-opacity:1;stroke:none"/>
    <rect style="fill:#e6e600;fill-opacity:1;stroke:none" id="rect4123" width="80" height="80" x="448" y="780.36218"/>
    <rect style="fill:none;stroke:#000080;stroke-width:4;stroke-miterlimit:4;stroke-opacity:1;stroke-dasharray:none" id="rect4125" width="240" height="80" x="288" y="780.36218" ry="4" rx="4"/>
    <text xml:space="preserve" style="font-style:normal;font-variant:normal;font-weight:normal;font-stretch:normal;line-height:0%;font-family:'Liberation Mono';-inkscape-font-specification:'Liberation Mono';text-align:start;letter-spacing:0px;word-spacing:0px;writing-mode:lr-tb;text-anchor:start;fill:#000000;fill-opacity:1;stroke:#808080;stroke-opacity:0.50196078" x="297.45801" y="801.9491" id="text4139"><tspan sodipodi:role="line" id="tspan4141" x="297.45801" y="801.9491" style="font-size:20px;line-height:1.25;fill:#ff0000;stroke:#808080;stroke-opacity:0.50196078">R 93%</tspan><tspan sodipodi:role="line" x="297.45801" y="826.9491" id="tspan4143" style="font-size:20px;line-height:1.25;fill:#00ff00;stroke:#808080;stroke-opacity:0.50196078">G 93%</tspan><tspan sodipodi:role="line" x="297.45801" y="851.9491" id="tspan4145" style="font-size:20px;line-height:1.25;fill:#000080;stroke:#808080;stroke-opacity:0.50196078">B 93%</tspan></text>
    <text id="text4147" y="801.9491" x="377.45801" style="font-style:normal;font-variant:normal;font-weight:normal;font-stretch:normal;line-height:0%;font-family:'Liberation Mono';-inkscape-font-specification:'Liberation Mono';text-align:start;letter-spacing:0px;word-spacing:0px;writing-mode:lr-tb;text-anchor:start;fill:#000000;fill-opacity:1;stroke:#808080;stroke-opacity:0.50196078" xml:space="preserve"><tspan style="font-size:20px;line-height:1.25;fill:#ff0000;stroke:#808080;stroke-opacity:0.50196078" y="801.9491" x="377.45801" id="tspan4149" sodipodi:role="line">R 35%</tspan><tspan style="font-size:20px;line-height:1.25;fill:#00ff00;stroke:#808080;stroke-opacity:0.50196078" id="tspan4151" y="826.9491" x="377.45801" sodipodi:role="line">G 35%</tspan><tspan style="font-size:20px;line-height:1.25;fill:#000080;stroke:#808080;stroke-opacity:0.50196078" id="tspan4153" y="851.9491" x="377.45801" sodipodi:role="line">B 16%</tspan></text>
    <text xml:space="preserve" style="font-style:normal;font-variant:normal;font-weight:normal;font-stretch:normal;line-height:0%;font-family:'Liberation Mono';-inkscape-font-specification:'Liberation Mono';text-align:start;letter-spacing:0px;word-spacing:0px;writing-mode:lr-tb;text-anchor:start;fill:#000000;fill-opacity:1;stroke:#808080;stroke-opacity:0.50196078" x="457.45801" y="801.9491" id="text4155"><tspan sodipodi:role="line" id="tspan4157" x="457.45801" y="801.9491" style="font-size:20px;line-height:1.25;fill:#ff0000;stroke:#808080;stroke-opacity:0.50196078">R 90%</tspan><tspan sodipodi:role="line" x="457.45801" y="826.9491" id="tspan4159" style="font-size:20px;line-height:1.25;fill:#00ff00;stroke:#808080;stroke-opacity:0.50196078">G 90%</tspan><tspan sodipodi:role="line" x="457.45801" y="851.9491" id="tspan4161" style="font-size:20px;line-height:1.25;fill:#000080;stroke:#808080;stroke-opacity:0.50196078">B  0%</tspan></text>
    <g id="g1091" transform="translate(504.27428,-467.85297)">
      <rect y="976.21515" x="-216.27428" height="240" width="240" id="rect1072" style="opacity:1;fill:#ffffff;fill-opacity:1;fill-rule:evenodd;stroke:none;stroke-width:1.80999994;stroke-linecap:round;stroke-linejoin:round;stroke-miterlimit:4;stroke-dasharray:none;stroke-dashoffset:0;stroke-opacity:1;paint-order:normal"/>
      <g transform="translate(48.582866,43.567248)" id="g1002">
        <path style="fill:none;stroke:none;stroke-opacity:1" d="m -264.85714,1052.6479 v -120 h 120 119.999996 v 120 120 h -119.999996 -120 z" id="path955" inkscape:connector-curvature="0"/>
        <path style="fill:#ededed;fill-opacity:1" d="m -164.85714,1167.6479 v -5 h -15 -15 v -5 -5 h -5 -5 v -5 -5 h -10 -10 v -5 -5 h -5 -5 v -10 -10 h -5 -5 v -5 -5 h -5 -5 v -15 -15 h -5 -5 v -20 -20 h 5 5 v -15 -15 h 5 5 v -5 -5 h 5 5 v -10 -10 h 5 5 v -5 -5 h 10 10 v -5 -5 h 5 5 v -5 -5 h 15 15 v -5 -5 h 20 20 v 5 5 h 15 14.999996 v 5 5 h 5 5 v 5 5 h 10 10 v 5 5 h 5 5 v 10 10 h 5 5 v 5 5 h 5 5 v 15 15 h 5 5 v 20 20 h -5 -5 v 15 15 h -5 -5 v 5 5 h -5 -5 v 10 10 h -5 -5 v 5 5 h -10 -10 v 5 5 h -5 -5 v 5 5 h -9.999996 -10 v 5 5 h -5 -5 v -5 -5 h -5 -5 v 5 5 h -15 -15 z m 40,-60 v -5 h -25 -25 v 5 5 h 25 25 z m -50,-85 v -10 h -10 -10 v 5 5 h 5 5 v 5 5 h 5 5 z m 79.999996,0 v -10 h -9.999996 -10 v 5 5 h 5 5 v 5 5 h 4.999996 5 z" id="path953" inkscape:connector-curvature="0"/>
        <path style="fill:#afafa6" d="m -184.85714,1157.6479 v -5 h -10 -10 v -5 -5 h -5 -5 v -5 -5 h -5 -5 v -5 -5 h -5 -5 v -5 -5 h -5 -5 v -10 -10 h -5 -5 v -40 -40 h 5 5 v -10 -10 h 5 5 v -5 -5 h 5 5 v -5 -5 h 5 5 v -5 -5 h 5 5 v -5 -5 h 10 10 v -5 -5 h 40 40 v 5 5 h 9.999996 10 v 5 5 h 5 5 v 5 5 h 5 5 v 5 5 h 5 5 v 5 5 h 5 5 v 10 10 h 5 5 v 40 40 h -5 -5 v 10 10 h -5 -5 v 5 5 h -5 -5 v 5 5 h -5 -5 v 5 5 h -5 -5 v 5 5 h -10 -9.999996 v 5 5 h -40 -40 z m 60,-50 v -5 h -25 -25 v 5 5 h 25 25 z m -50,-85 v -10 h -10 -10 v 5 5 h 5 5 v 5 5 h 5 5 z m 79.999996,0 v -10 h -9.999996 -10 v 5 5 h 5 5 v 5 5 h 4.999996 5 z" id="path951" inkscape:connector-curvature="0"/>
        <path style="fill:#ffff00;fill-opacity:1" d="m -174.85714,1157.6479 v -5 h -10 -10 v -5 -5 h -10 -10 v -5 -5 h -5 -5 v -5 -5 h -5 -5 v -10 -10 h -5 -5 v -10 -10 h -5 -5 v -30 -30 h 5 5 v -10 -10 h 5 5 v -10 -10 h 5 5 v -5 -5 h 5 5 v -5 -5 h 10 10 v -5 -5 h 10 10 v -5 -5 h 30 30 v 5 5 h 10 9.999996 v 5 5 h 10 10 v 5 5 h 5 5 v 5 5 h 5 5 v 10 10 h 5 5 v 10 10 h 5 5 v 30 30 h -5 -5 v 10 10 h -5 -5 v 10 10 h -5 -5 v 5 5 h -5 -5 v 5 5 h -10 -10 v 5 5 h -9.999996 -10 v 5 5 h -30 -30 z m 50,-50 v -5 h -25 -25 v 5 5 h 25 25 z m -50,-85 v -10 h -10 -10 v 5 5 h 5 5 v 5 5 h 5 5 z m 79.999996,0 v -10 h -9.999996 -10 v 5 5 h 5 5 v 5 5 h 4.999996 5 z" id="path949" inkscape:connector-curvature="0"/>
        <path style="fill:#e6e600;fill-opacity:1" d="m -174.85714,1157.6479 v -5 h -10 -10 v -5 -5 h -10 -10 v -5 -5 h -5 -5 v -5 -5 h -5 -5 v -10 -10 h -5 -5 v -10 -10 h -5 -5 v -30 -30 h 5 5 v -10 -10 h 5 5 v -10 -10 h 5 5 v -5 -5 h 5 5 v -5 -5 h 10 10 v -5 -5 h 10 10 v -5 -5 h 30 30 v 5 5 h 10 9.999996 v 5 5 h 10 10 v 5 5 h 5 5 v 5 5 h 5 5 v 10 10 h 5 5 v 10 10 h 5 5 v 30 30 h -5 -5 v 10 10 h -5 -5 v 10 10 h -5 -5 v 5 5 h -5 -5 v 5 5 h -10 -10 v 5 5 h -9.999996 -10 v 5 5 h -30 -30 z m 50,-10 v -5 h 15 14.999996 v -5 -5 h 5 5 v -5 -5 h 5 5 v -5 -5 h 5 5 v -5 -5 h 5 5 v -15 -15 h 5 5 v -20 -20 h -5 -5 v -15 -15 h -5 -5 v -5 -5 h -5 -5 v -5 -5 h -5 -5 v -5 -5 h -5 -5 v -5 -5 h -14.999996 -15 v -5 -5 h -20 -20 v 5 5 h -15 -15 v 5 5 h -5 -5 v 5 5 h -5 -5 v 5 5 h -5 -5 v 5 5 h -5 -5 v 15 15 h -5 -5 v 20 20 h 5 5 v 15 15 h 5 5 v 5 5 h 5 5 v 5 5 h 5 5 v 5 5 h 5 5 v 5 5 h 15 15 v 5 5 h 20 20 z m -20,-20 v -5 h -20 -20 v -5 -5 h -5 -5 v -5 -5 h -10 -10 v -10 -10 h 5 5 v -5 -5 h 5 5 v 5 5 h 5 5 v 5 5 h 35 35 v -5 -5 h 10 9.999996 v -5 -5 h 10 10 v 10 10 h -10 -10 v 5 5 h -5 -4.999996 v 5 5 h -5 -5 v 5 5 h -10 -10 v 5 5 h -5 -5 z m 20,-20 v -5 h -25 -25 v 5 5 h 25 25 z m -80,-70 v -5 h -5 -5 v -10 -10 h 5 5 v -5 -5 h 5 5 v -5 -5 h 5 5 v 5 5 h 10 10 v 15 15 h -5 -5 v 5 5 h -15 -15 z m 30,-15 v -10 h -10 -10 v 5 5 h 5 5 v 5 5 h 5 5 z m 50,15 v -5 h -5 -5 v -10 -10 h 5 5 v -5 -5 h 5 5 v -5 -5 h 5 5 v 5 5 h 9.999996 10 v 15 15 h -5 -5 v 5 5 h -14.999996 -15 z m 29.999996,-15 v -10 h -9.999996 -10 v 5 5 h 5 5 v 5 5 h 4.999996 5 z" id="path947" inkscape:connector-curvature="0"/>
        <path style="fill:#d5d500" d="m -174.85714,1157.6479 v -5 h -10 -10 v -5 -5 h -10 -10 v -5 -5 h -5 -5 v -5 -5 h -5 -5 v -10 -10 h -5 -5 v -10 -10 h -5 -5 v -30 -30 h 5 5 v -10 -10 h 5 5 v -10 -10 h 5 5 v -5 -5 h 5 5 v -5 -5 h 10 10 v -5 -5 h 10 10 v -5 -5 h 30 30 v 5 5 h 10 9.999996 v 5 5 h 10 10 v 5 5 h 5 5 v 5 5 h 5 5 v 10 10 h 5 5 v 10 10 h 5 5 v 30 30 h -5 -5 v 10 10 h -5 -5 v 10 10 h -5 -5 v 5 5 h -5 -5 v 5 5 h -10 -10 v 5 5 h -9.999996 -10 v 5 5 h -30 -30 z m 60,-10 v -5 h 10 9.999996 v -5 -5 h 10 10 v -5 -5 h 5 5 v -10 -10 h 5 5 v -10 -10 h 5 5 v -30 -30 h -5 -5 v -10 -10 h -5 -5 v -10 -10 h -5 -5 v -5 -5 h -10 -10 v -5 -5 h -9.999996 -10 v -5 -5 h -30 -30 v 5 5 h -10 -10 v 5 5 h -10 -10 v 5 5 h -5 -5 v 10 10 h -5 -5 v 10 10 h -5 -5 v 30 30 h 5 5 v 10 10 h 5 5 v 10 10 h 5 5 v 5 5 h 10 10 v 5 5 h 10 10 v 5 5 h 30 30 z m -60,-30 v -5 h -10 -10 v -5 -5 h -10 -10 v -10 -10 h 5 5 v -5 -5 h 5 5 v 5 5 h 5 5 v 5 5 h 40 40 v -5 -5 h 4.999996 5 v -5 -5 h 10 10 v 10 10 h -10 -10 v 5 5 h -5 -4.999996 v 5 5 h -5 -5 v 5 5 h -30 -30 z m 50,-10 v -5 h -25 -25 v 5 5 h 25 25 z m -80,-75 v -10 h -5 -5 v -5 -5 h 5 5 v -5 -5 h 20 20 v 15 15 h -5 -5 v 5 5 h -15 -15 z m 30,-10 v -10 h -10 -10 v 5 5 h 5 5 v 5 5 h 5 5 z m 50,10 v -10 h -5 -5 v -5 -5 h 5 5 v -5 -5 h 15 14.999996 v 5 5 h 5 5 v 10 10 h -5 -5 v 5 5 h -14.999996 -15 z m 29.999996,-10 v -10 h -9.999996 -10 v 5 5 h 5 5 v 5 5 h 4.999996 5 z" id="path945" inkscape:connector-curvature="0"/>
        <path style="fill:#898973" d="m -174.85714,1157.6479 v -5 h -10 -10 v -5 -5 h -10 -10 v -5 -5 h -5 -5 v -5 -5 h -5 -5 v -10 -10 h -5 -5 v -10 -10 h -5 -5 v -30 -30 h 5 5 v -10 -10 h 5 5 v -10 -10 h 5 5 v -5 -5 h 5 5 v -5 -5 h 10 10 v -5 -5 h 10 10 v -5 -5 h 30 30 v 5 5 h 10 9.999996 v 5 5 h 10 10 v 5 5 h 5 5 v 5 5 h 5 5 v 10 10 h 5 5 v 10 10 h 5 5 v 30 30 h -5 -5 v 10 10 h -5 -5 v 10 10 h -5 -5 v 5 5 h -5 -5 v 5 5 h -10 -10 v 5 5 h -9.999996 -10 v 5 5 h -30 -30 z m 60,-10 v -5 h 10 9.999996 v -5 -5 h 10 10 v -5 -5 h 5 5 v -10 -10 h 5 5 v -10 -10 h 5 5 v -30 -30 h -5 -5 v -10 -10 h -5 -5 v -10 -10 h -5 -5 v -5 -5 h -10 -10 v -5 -5 h -9.999996 -10 v -5 -5 h -30 -30 v 5 5 h -10 -10 v 5 5 h -10 -10 v 5 5 h -5 -5 v 10 10 h -5 -5 v 10 10 h -5 -5 v 30 30 h 5 5 v 10 10 h 5 5 v 10 10 h 5 5 v 5 5 h 10 10 v 5 5 h 10 10 v 5 5 h 30 30 z m -60,-30 v -5 h -5 -5 v -5 -5 h -15 -15 v -5 -5 h 5 5 v -10 -10 h 5 5 v 10 10 h 20 20 v 5 5 h -10 -10 v 5 5 h 25 25 v -5 -5 h -10 -10 v -5 -5 h 20 20 v -5 -5 h 4.999996 5 v -5 -5 h 10 10 v 10 10 h -10 -10 v 5 5 h -5 -4.999996 v 5 5 h -10 -10 v 5 5 h -25 -25 z m -30,-95 v -20 h 15 15 v 5 5 h 5 5 v 10 10 h -5 -5 v 5 5 h -15 -15 z m 30,0 v -10 h -10 -10 v 5 5 h 5 5 v 5 5 h 5 5 z m 50,0 v -20 h 15 14.999996 v 5 5 h 5 5 v 10 10 h -5 -5 v 5 5 h -14.999996 -15 z m 29.999996,0 v -10 h -9.999996 -10 v 5 5 h 5 5 v 5 5 h 4.999996 5 z" id="path943" inkscape:connector-curvature="0"/>
        <path style="fill:#adad07" d="m -174.85714,1157.6479 v -5 h -10 -10 v -5 -5 h -10 -10 v -5 -5 h -5 -5 v -5 -5 h -5 -5 v -10 -10 h -5 -5 v -10 -10 h -5 -5 v -30 -30 h 5 5 v -10 -10 h 5 5 v -10 -10 h 5 5 v -5 -5 h 5 5 v -5 -5 h 10 10 v -5 -5 h 10 10 v -5 -5 h 30 30 v 5 5 h 10 9.999996 v 5 5 h 10 10 v 5 5 h 5 5 v 5 5 h 5 5 v 10 10 h 5 5 v 10 10 h 5 5 v 30 30 h -5 -5 v 10 10 h -5 -5 v 10 10 h -5 -5 v 5 5 h -5 -5 v 5 5 h -10 -10 v 5 5 h -9.999996 -10 v 5 5 h -30 -30 z m 60,-10 v -5 h 10 9.999996 v -5 -5 h 10 10 v -5 -5 h 5 5 v -10 -10 h 5 5 v -10 -10 h 5 5 v -30 -30 h -5 -5 v -10 -10 h -5 -5 v -10 -10 h -5 -5 v -5 -5 h -10 -10 v -5 -5 h -9.999996 -10 v -5 -5 h -30 -30 v 5 5 h -10 -10 v 5 5 h -10 -10 v 5 5 h -5 -5 v 10 10 h -5 -5 v 10 10 h -5 -5 v 30 30 h 5 5 v 10 10 h 5 5 v 10 10 h 5 5 v 5 5 h 10 10 v 5 5 h 10 10 v 5 5 h 30 30 z m -60,-30 v -5 h -5 -5 v -5 -5 h -15 -15 v -5 -5 h 5 5 v -10 -10 h 5 5 v 10 10 h 20 20 v 5 5 h -10 -10 v 5 5 h 25 25 v 5 5 h -25 -25 z m 60,-10 v -5 h -15 -15 v -5 -5 h 20 20 v -5 -5 h 4.999996 5 v -5 -5 h 10 10 v 10 10 h -10 -10 v 5 5 h -5 -4.999996 v 5 5 h -5 -5 z m -90,-75 v -10 h 10 10 v 5 5 h 5 5 v -10 -10 h -15 -15 v -5 -5 h 15 15 v 5 5 h 5 5 v 10 10 h -5 -5 v 5 5 h -15 -15 z m 80,0 v -10 h 10 10 v 5 5 h 4.999996 5 v -10 -10 h -14.999996 -15 v -5 -5 h 15 14.999996 v 5 5 h 5 5 v 10 10 h -5 -5 v 5 5 h -14.999996 -15 z" id="path941" inkscape:connector-curvature="0"/>
        <path style="fill:#797964" d="m -174.85714,1157.6479 v -5 h 30 30 v 5 5 h -30 -30 z m -20,-10 v -5 h 5 5 v 5 5 h -5 -5 z m 90,0 v -5 h 4.999996 5 v 5 5 h -5 -4.999996 z m -110,-10 v -5 h -5 -5 v -5 -5 h -5 -5 v -5 -5 h 5 5 v 5 5 h 5 5 v 5 5 h 5 5 v 5 5 h -5 -5 z m 129.999996,0 v -5 h 5 5 v -5 -5 h 5 5 v -5 -5 h 5 5 v 5 5 h -5 -5 v 5 5 h -5 -5 v 5 5 h -5 -5 z m -89.999996,-20 v -5 h -5 -5 v -5 -5 h -5 -5 v -5 -5 h -5 -5 v -5 -5 h 5 5 v 5 5 h 15 15 v 5 5 h -5 -5 v 5 5 h 25 25 v 5 5 h -25 -25 z m 60,-10 v -5 h -10 -10 v -5 -5 h 15 15 v -5 -5 h 4.999996 5 v -5 -5 h 5 5 v 5 5 h 5 5 v 5 5 h -10 -10 v 5 5 h -5 -4.999996 v 5 5 h -5 -5 z m -130,-10 v -5 h 5 5 v 5 5 h -5 -5 z m 189.999996,0 v -5 h 5 5 v 5 5 h -5 -5 z m -199.999996,-45 v -30 h 5 5 v 30 30 h -5 -5 z m 209.999996,0 v -30 h 5 5 v 30 30 h -5 -5 z m -149.999996,-15 v -5 h -5 -5 v -5 -5 h 10 10 v 5 5 h 5 5 v -10 -10 h -15 -15 v -5 -5 h 15 15 v 5 5 h 5 5 v 10 10 h -5 -5 v 5 5 h -10 -10 z m 80,0 v -5 h -5 -5 v -5 -5 h 10 10 v 5 5 h 4.999996 5 v -10 -10 h -14.999996 -15 v -5 -5 h 15 14.999996 v 5 5 h 5 5 v 10 10 h -5 -5 v 5 5 h -9.999996 -10 z m -130,-30 v -5 h 5 5 v 5 5 h -5 -5 z m 189.999996,0 v -5 h 5 5 v 5 5 h -5 -5 z m -179.999996,-20 v -5 h 5 5 v -5 -5 h 5 5 v -5 -5 h 5 5 v 5 5 h -5 -5 v 5 5 h -5 -5 v 5 5 h -5 -5 z m 169.999996,0 v -5 h -5 -5 v -5 -5 h -5 -5 v -5 -5 h 5 5 v 5 5 h 5 5 v 5 5 h 5 5 v 5 5 h -5 -5 z m -129.999996,-30 v -5 h 5 5 v 5 5 h -5 -5 z m 90,0 v -5 h 4.999996 5 v 5 5 h -5 -4.999996 z m -70,-10 v -5 h 30 30 v 5 5 h -30 -30 z" id="path939" inkscape:connector-curvature="0"/>
        <path style="fill:#8c8c0e" d="m -164.85714,1157.6479 v -5 h 20 20 v 5 5 h -20 -20 z m -30,-10 v -5 h 5 5 v 5 5 h -5 -5 z m 90,0 v -5 h 4.999996 5 v 5 5 h -5 -4.999996 z m -110,-10 v -5 h -5 -5 v -5 -5 h -5 -5 v -5 -5 h 5 5 v 5 5 h 5 5 v 5 5 h 5 5 v 5 5 h -5 -5 z m 129.999996,0 v -5 h 5 5 v -5 -5 h 5 5 v -5 -5 h 5 5 v 5 5 h -5 -5 v 5 5 h -5 -5 v 5 5 h -5 -5 z m -89.999996,-20 v -5 h -5 -5 v -5 -5 h -5 -5 v -5 -5 h -5 -5 v -5 -5 h 5 5 v 5 5 h 15 15 v 5 5 h -5 -5 v 5 5 h 15 15 v 5 5 h -15 -15 z m 40,0 v -5 h 5 5 v 5 5 h -5 -5 z m 20,-10 v -5 h -10 -10 v -5 -5 h 15 15 v -5 -5 h 4.999996 5 v -5 -5 h 5 5 v 5 5 h 5 5 v 5 5 h -10 -10 v 5 5 h -5 -4.999996 v 5 5 h -5 -5 z m -130,-10 v -5 h 5 5 v 5 5 h -5 -5 z m 189.999996,0 v -5 h 5 5 v 5 5 h -5 -5 z m -199.999996,-45 v -20 h 5 5 v 20 20 h -5 -5 z m 209.999996,0 v -20 h 5 5 v 20 20 h -5 -5 z m -149.999996,-15 v -5 h -5 -5 v -5 -5 h 5 5 v 5 5 h 10 10 v -10 -10 h -15 -15 v -5 -5 h 15 15 v 5 5 h 5 5 v 10 10 h -5 -5 v 5 5 h -10 -10 z m 80,0 v -5 h -5 -5 v -5 -5 h 10 10 v 5 5 h 4.999996 5 v -10 -10 h -14.999996 -15 v -5 -5 h 15 14.999996 v 5 5 h 5 5 v 10 10 h -5 -5 v 5 5 h -9.999996 -10 z m -130,-30 v -5 h 5 5 v 5 5 h -5 -5 z m 189.999996,0 v -5 h 5 5 v 5 5 h -5 -5 z m -179.999996,-20 v -5 h 5 5 v -5 -5 h 5 5 v -5 -5 h 5 5 v 5 5 h -5 -5 v 5 5 h -5 -5 v 5 5 h -5 -5 z m 169.999996,0 v -5 h -5 -5 v -5 -5 h -5 -5 v -5 -5 h 5 5 v 5 5 h 5 5 v 5 5 h 5 5 v 5 5 h -5 -5 z m -129.999996,-30 v -5 h 5 5 v 5 5 h -5 -5 z m 90,0 v -5 h 4.999996 5 v 5 5 h -5 -4.999996 z m -60,-10 v -5 h 20 20 v 5 5 h -20 -20 z" id="path937" inkscape:connector-curvature="0"/>
        <path style="fill:#6b6b4d" d="m -164.85714,1157.6479 v -5 h 20 20 v 5 5 h -20 -20 z m -30,-10 v -5 h 5 5 v 5 5 h -5 -5 z m 90,0 v -5 h 4.999996 5 v 5 5 h -5 -4.999996 z m -110,-10 v -5 h -5 -5 v -5 -5 h -5 -5 v -5 -5 h 5 5 v 5 5 h 5 5 v 5 5 h 5 5 v 5 5 h -5 -5 z m 129.999996,0 v -5 h 5 5 v -5 -5 h 5 5 v -5 -5 h 5 5 v 5 5 h -5 -5 v 5 5 h -5 -5 v 5 5 h -5 -5 z m -89.999996,-20 v -5 h -5 -5 v -5 -5 h -5 -5 v -5 -5 h -5 -5 v -5 -5 h 5 5 v 5 5 h 10 10 v 10 10 h 15 15 v 5 5 h -15 -15 z m 40,0 v -5 h 5 5 v 5 5 h -5 -5 z m -110,-20 v -5 h 5 5 v 5 5 h -5 -5 z m 120,0 v -5 h 10 10 v -5 -5 h 9.999996 10 v 5 5 h -5 -5 v 5 5 h -14.999996 -15 z m 69.999996,0 v -5 h 5 5 v 5 5 h -5 -5 z m -199.999996,-45 v -20 h 5 5 v 20 20 h -5 -5 z m 209.999996,0 v -20 h 5 5 v 20 20 h -5 -5 z m -149.999996,-15 v -5 h -5 -5 v -5 -5 h 5 5 v 5 5 h 5 5 v 5 5 h -5 -5 z m 80,0 v -5 h -5 -5 v -5 -5 h 10 10 v 10 10 h -5 -5 z m -60,-20 v -5 h -15 -15 v -5 -5 h 15 15 v 5 5 h 5 5 v 5 5 h -5 -5 z m 79.999996,0 v -5 h -14.999996 -15 v -5 -5 h 15 14.999996 v 5 5 h 5 5 v 5 5 h -5 -5 z m -149.999996,-10 v -5 h 5 5 v 5 5 h -5 -5 z m 189.999996,0 v -5 h 5 5 v 5 5 h -5 -5 z m -179.999996,-20 v -5 h 5 5 v -5 -5 h 5 5 v -5 -5 h 5 5 v 5 5 h -5 -5 v 5 5 h -5 -5 v 5 5 h -5 -5 z m 169.999996,0 v -5 h -5 -5 v -5 -5 h -5 -5 v -5 -5 h 5 5 v 5 5 h 5 5 v 5 5 h 5 5 v 5 5 h -5 -5 z m -129.999996,-30 v -5 h 5 5 v 5 5 h -5 -5 z m 90,0 v -5 h 4.999996 5 v 5 5 h -5 -4.999996 z m -60,-10 v -5 h 20 20 v 5 5 h -20 -20 z" id="path935" inkscape:connector-curvature="0"/>
        <path style="fill:#77771b" d="m -154.85714,1157.6479 v -5 h 10 10 v 5 5 h -10 -10 z m -40,-10 v -5 h 5 5 v 5 5 h -5 -5 z m 90,0 v -5 h 4.999996 5 v 5 5 h -5 -4.999996 z m -120,-20 v -5 h 5 5 v 5 5 h -5 -5 z m 149.999996,0 v -5 h 5 5 v 5 5 h -5 -5 z m -99.999996,-10 v -5 h -5 -5 v -5 -5 h -5 -5 v -5 -5 h -5 -5 v -5 -5 h 5 5 v 5 5 h 10 10 v 10 10 h 10 10 v 5 5 h -10 -10 z m 40,0 v -5 h 5 5 v 5 5 h -5 -5 z m -110,-20 v -5 h 5 5 v 5 5 h -5 -5 z m 120,0 v -5 h 10 10 v -5 -5 h 9.999996 10 v 5 5 h -5 -5 v 5 5 h -14.999996 -15 z m 69.999996,0 v -5 h 5 5 v 5 5 h -5 -5 z m -199.999996,-45 v -10 h 5 5 v 10 10 h -5 -5 z m 209.999996,0 v -10 h 5 5 v 10 10 h -5 -5 z m -149.999996,-15 v -5 h 5 5 v 5 5 h -5 -5 z m 80,0 v -5 h 5 5 v 5 5 h -5 -5 z m -60,-20 v -5 h -5 -5 v -5 -5 h 5 5 v 5 5 h 5 5 v 5 5 h -5 -5 z m 79.999996,0 v -5 h -5 -4.999996 v -5 -5 h 4.999996 5 v 5 5 h 5 5 v 5 5 h -5 -5 z m -149.999996,-10 v -5 h 5 5 v 5 5 h -5 -5 z m 40,0 v -5 h 5 5 v 5 5 h -5 -5 z m 80,0 v -5 h 5 5 v 5 5 h -5 -5 z m 69.999996,0 v -5 h 5 5 v 5 5 h -5 -5 z m -169.999996,-30 v -5 h 5 5 v 5 5 h -5 -5 z m 149.999996,0 v -5 h 5 5 v 5 5 h -5 -5 z m -119.999996,-20 v -5 h 5 5 v 5 5 h -5 -5 z m 90,0 v -5 h 4.999996 5 v 5 5 h -5 -4.999996 z m -50,-10 v -5 h 10 10 v 5 5 h -10 -10 z" id="path933" inkscape:connector-curvature="0"/>
        <path style="fill:#68682c" d="m -154.85714,1157.6479 v -5 h 10 10 v 5 5 h -10 -10 z m -40,-10 v -5 h 5 5 v 5 5 h -5 -5 z m 90,0 v -5 h 4.999996 5 v 5 5 h -5 -4.999996 z m -120,-20 v -5 h 5 5 v 5 5 h -5 -5 z m 149.999996,0 v -5 h 5 5 v 5 5 h -5 -5 z m -89.999996,-10 v -5 h 5 5 v 5 5 h -5 -5 z m 30,0 v -5 h 5 5 v 5 5 h -5 -5 z m -50,-10 v -5 h -5 -5 v -5 -5 h -5 -5 v -5 -5 h 5 5 v 5 5 h 10 10 v 10 10 h -5 -5 z m -60,-10 v -5 h 5 5 v 5 5 h -5 -5 z m 120,0 v -5 h 15 14.999996 v -5 -5 h 5 5 v 5 5 h -5 -5 v 5 5 h -14.999996 -15 z m 69.999996,0 v -5 h 5 5 v 5 5 h -5 -5 z m -199.999996,-45 v -10 h 5 5 v 10 10 h -5 -5 z m 209.999996,0 v -10 h 5 5 v 10 10 h -5 -5 z m -149.999996,-15 v -5 h 5 5 v 5 5 h -5 -5 z m 80,0 v -5 h 5 5 v 5 5 h -5 -5 z m -130,-30 v -5 h 5 5 v 5 5 h -5 -5 z m 60,0 v -5 h 5 5 v 5 5 h -5 -5 z m 80,0 v -5 h 4.999996 5 v 5 5 h -5 -4.999996 z m 49.999996,0 v -5 h 5 5 v 5 5 h -5 -5 z m -169.999996,-30 v -5 h 5 5 v 5 5 h -5 -5 z m 149.999996,0 v -5 h 5 5 v 5 5 h -5 -5 z m -119.999996,-20 v -5 h 5 5 v 5 5 h -5 -5 z m 90,0 v -5 h 4.999996 5 v 5 5 h -5 -4.999996 z m -50,-10 v -5 h 10 10 v 5 5 h -10 -10 z" id="path931" inkscape:connector-curvature="0"/>
        <path style="fill:#5a5a2a;fill-opacity:1" d="m -224.85714,1127.6479 v -5 h 5 5 v 5 5 h -5 -5 z m 149.999996,0 v -5 h 5 5 v 5 5 h -5 -5 z m -109.999996,-20 v -5 h -5 -5 v -5 -5 h -5 -5 v -5 -5 h 5 5 v 5 5 h 10 10 v 10 10 h -5 -5 z m 70,-10 v -5 h 10 9.999996 v -5 -5 h 5 5 v 5 5 h -5 -5 v 5 5 h -9.999996 -10 z m -70,-90 v -5 h 5 5 v 5 5 h -5 -5 z m 80,0 v -5 h 4.999996 5 v 5 5 h -5 -4.999996 z m -120,-30 v -5 h 5 5 v 5 5 h -5 -5 z m 149.999996,0 v -5 h 5 5 v 5 5 h -5 -5 z" id="path929" inkscape:connector-curvature="0"/>
        <path style="fill:#222216" d="m -194.85714,1097.6479 v -5 h 5 5 v 5 5 h -5 -5 z m 80,0 v -5 h 5 5 v 5 5 h -5 -5 z" id="path927" inkscape:connector-curvature="0"/>
      </g>
    </g>
    <rect style="fill:none;stroke:#000080;stroke-width:2;stroke-linecap:round;stroke-linejoin:round;stroke-miterlimit:4;stroke-dasharray:none;stroke-opacity:1" id="rect4113" width="31.908386" height="11.972996" x="317.09161" y="697.38916"/>
    <rect style="fill:none;stroke:#000000;stroke-width:4;stroke-miterlimit:4;stroke-opacity:1;stroke-dasharray:none" id="rect4017" width="240" height="240" x="288" y="508.36221" ry="4" rx="4"/>
    <path style="fill:none;stroke:#000000;stroke-width:1.96817303;stroke-linecap:round;stroke-linejoin:round;stroke-miterlimit:4;stroke-dasharray:none;stroke-opacity:0.3137255" d="M 328.13393,709.36553 368,780.36218" id="path4111-7" inkscape:connector-curvature="0" sodipodi:nodetypes="cc"/>
    <path style="fill:none;stroke:#000000;stroke-width:2;stroke-linecap:round;stroke-linejoin:round;stroke-miterlimit:4;stroke-dasharray:none;stroke-opacity:0.3137255" d="M 338.12628,709.394 448,780.36218" id="path4111-7-5" inkscape:connector-curvature="0" sodipodi:nodetypes="cc"/>
    <path style="fill:none;stroke:#000000;stroke-width:1.96817303;stroke-linecap:round;stroke-linejoin:round;stroke-miterlimit:4;stroke-dasharray:none;stroke-opacity:0.3137255" d="m 317.09161,709.36218 -29.09161,71" id="path4111-7-3" inkscape:connector-curvature="0" sodipodi:nodetypes="cc"/>
    <path style="fill:none;stroke:#000000;stroke-width:1.96817303;stroke-linecap:round;stroke-linejoin:round;stroke-miterlimit:4;stroke-dasharray:none;stroke-opacity:0.3137255" d="m 349,709.36218 178.24107,71.53571" id="path4111-7-56" inkscape:connector-curvature="0" sodipodi:nodetypes="cc"/>
    <rect style="fill:none;stroke:#000000;stroke-width:1;stroke-opacity:1" id="rect4003" width="24" height="24" x="192" y="492.36218" ry="0"/>
  </g>
</svg>